<?xml version="1.0" encoding="UTF-8"?>
<!-- Generator: visioncortex VTracer 0.6.2 -->
<svg version="1.1" xmlns="http://www.w3.org/2000/svg" width="1280" height="561">
<path d="M0 0 C3.46632819 2.86991584 6.75553357 5.88287611 10 9 C10.67289063 9.63292969 11.34578125 10.26585937 12.0390625 10.91796875 C15.60282969 14.35283372 18.42236933 17.77268571 21 22 C23.93948259 19.14959264 26.70133367 16.22717719 29.375 13.125 C30.58166076 11.74853197 31.78995472 10.37349367 33 9 C33.49886719 8.42121094 33.99773437 7.84242188 34.51171875 7.24609375 C48.63544339 -8.0872194 70.60031622 -16.52083396 91.0546875 -17.3828125 C118.67400295 -18.03069037 145.70795236 -14.07210433 166.5625 5.609375 C167.7690625 6.79273438 167.7690625 6.79273438 169 8 C169.763125 8.72703125 170.52625 9.4540625 171.3125 10.203125 C190.43858198 29.72766702 194.37044654 57.42747881 194.22705078 83.5859375 C194.22648459 85.06611117 194.22680727 86.54628539 194.22793579 88.02645874 C194.2285022 91.98824591 194.21686529 95.94990832 194.20278788 99.91166687 C194.19015983 104.0729405 194.18910062 108.23421798 194.18673706 112.39550781 C194.18055737 120.25026366 194.16419484 128.10496285 194.14403808 135.95969391 C194.12156883 144.9127282 194.11065811 153.86576541 194.10064721 162.81882095 C194.07982488 181.2125858 194.04319336 199.60627314 194 218 C177.17 218 160.34 218 143 218 C142.9906543 213.69130859 142.98130859 209.38261719 142.97167969 204.94335938 C142.93782817 190.66616601 142.88243216 176.38911527 142.81609726 162.11203766 C142.7764212 153.46059389 142.743971 144.80923957 142.72900391 136.15771484 C142.71592773 128.61010496 142.68881258 121.06269285 142.64538693 113.51519442 C142.62290509 109.5251016 142.60708124 105.53525149 142.60811615 101.54508972 C142.60887073 97.77581315 142.59060656 94.00707036 142.55883217 90.23793221 C142.54648607 88.22286304 142.55333453 86.20770355 142.56114197 84.19261169 C142.38614349 68.56986506 138.75028449 52.39318591 127.796875 40.62109375 C116.10864111 30.07627404 101.69347161 27.01624349 86.375 27.61328125 C74.43356143 28.44342073 62.91260656 32.9229503 54 41 C53.67 41.66 53.34 42.32 53 43 C52.34 43 51.68 43 51 43 C50.73960937 43.54269531 50.47921875 44.08539063 50.2109375 44.64453125 C49.33883454 46.34091216 48.39720474 48.00218423 47.4140625 49.63671875 C36.83080798 67.68370954 37.38703387 86.72358298 37.39249516 106.99376988 C37.38932973 110.87217668 37.36363754 114.75043902 37.34051514 118.62876892 C37.30022588 125.94513989 37.27967879 133.26142236 37.26654124 140.577887 C37.2505785 148.91919266 37.21212484 157.26034966 37.17194796 165.60156834 C37.08992024 182.73435724 37.03856451 199.86704975 37 217 C20.5 217 4 217 -13 217 C-13.02187378 210.87860474 -13.02187378 210.87860474 -13.04418945 204.63354492 C-13.09471733 191.09079829 -13.16119751 177.54816837 -13.23571491 164.00553417 C-13.28047359 155.80147279 -13.31993277 147.5974529 -13.34643555 139.39331055 C-13.36957856 132.23353684 -13.4031543 125.07389666 -13.44870156 117.91422921 C-13.47241675 114.13143626 -13.49128621 110.34877374 -13.49761391 106.56590843 C-12.79997732 70.56760607 -12.79997732 70.56760607 -28.75 39.375 C-39.3219242 30.03955816 -53.65958005 26.27842213 -67.53515625 26.6484375 C-82.95262456 28.21278039 -95.29491995 33.60073387 -106 45 C-121.37505672 64.87343576 -119.31437944 91.58661025 -119.40471697 115.27780199 C-119.42056857 118.90126016 -119.44728577 122.52463969 -119.4727478 126.14804077 C-119.51915222 132.97915129 -119.55607911 139.81027727 -119.58942068 146.64146268 C-119.62791661 154.43138205 -119.67725269 162.22122168 -119.72740483 170.01107335 C-119.83015295 186.00732424 -119.91959513 202.00362023 -120 218 C-126.96003447 218.02526838 -133.9200572 218.04283222 -140.88012695 218.05493164 C-143.24992312 218.05997341 -145.61971615 218.06680665 -147.98950195 218.07543945 C-151.38754039 218.0875119 -154.78553785 218.09322971 -158.18359375 218.09765625 C-159.25024765 218.10281754 -160.31690155 218.10797882 -161.4158783 218.11329651 C-162.39681961 218.11337204 -163.37776093 218.11344757 -164.38842773 218.11352539 C-165.69081642 218.11685631 -165.69081642 218.11685631 -167.01951599 218.12025452 C-169 218 -169 218 -170 217 C-170.10019205 214.07147779 -170.1343844 211.16646252 -170.12698364 208.23744202 C-170.12854363 207.30694879 -170.13010362 206.37645555 -170.13171089 205.41776556 C-170.13572519 202.27466977 -170.13252958 199.1316216 -170.12939453 195.98852539 C-170.13074839 193.74534578 -170.13252824 191.50216639 -170.13470459 189.25898743 C-170.13928101 183.1475315 -170.13748844 177.03609237 -170.1343255 170.92463613 C-170.13180266 164.54337978 -170.13413926 158.16212493 -170.13571167 151.78086853 C-170.1376506 140.37370035 -170.13453268 128.96654152 -170.12945233 117.55937492 C-170.12498536 107.20893169 -170.12575932 96.85849967 -170.13037109 86.50805664 C-170.13571844 74.50104229 -170.13771676 62.49403641 -170.13475883 50.48702043 C-170.13319623 44.12653264 -170.13300179 37.76605257 -170.13629532 31.40556526 C-170.13917491 25.42618602 -170.13719669 19.44682803 -170.13140106 13.4674511 C-170.13007388 11.26714997 -170.13046687 9.06684706 -170.13266373 6.86654663 C-170.13537689 3.87418711 -170.13199199 0.88189669 -170.12698364 -2.11045837 C-170.12921436 -2.99108678 -170.13144509 -3.87171519 -170.13374341 -4.77902931 C-170.11414991 -10.77170018 -170.11414991 -10.77170018 -169 -13 C-162.18238106 -13.0252689 -155.36477411 -13.04283244 -148.54711914 -13.05493164 C-146.22582549 -13.05997333 -143.90453503 -13.06680651 -141.58325195 -13.07543945 C-138.25471205 -13.08751225 -134.92621398 -13.09322979 -131.59765625 -13.09765625 C-130.55287613 -13.10281754 -129.50809601 -13.10797882 -128.43165588 -13.11329651 C-127.47073532 -13.11337204 -126.50981476 -13.11344757 -125.51977539 -13.11352539 C-124.66928116 -13.115746 -123.81878693 -13.11796661 -122.94252014 -13.12025452 C-121 -13 -121 -13 -120 -12 C-119.91262355 -10.14630389 -119.89301847 -8.28932459 -119.90234375 -6.43359375 C-119.90556641 -5.30888672 -119.90878906 -4.18417969 -119.91210938 -3.02539062 C-119.92467773 -1.24938477 -119.92467773 -1.24938477 -119.9375 0.5625 C-119.94201172 1.75037109 -119.94652344 2.93824219 -119.95117188 4.16210938 C-119.96300325 7.10812226 -119.97948713 10.05403681 -120 13 C-119.34 13 -118.68 13 -118 13 C-117.731875 12.360625 -117.46375 11.72125 -117.1875 11.0625 C-116 9 -116 9 -113 8 C-112.505 6.515 -112.505 6.515 -112 5 C-109.99215601 3.29601371 -108.01961823 1.76339164 -105.875 0.25 C-104.94143677 -0.41044312 -104.94143677 -0.41044312 -103.98901367 -1.08422852 C-94.22945209 -7.78531447 -83.59658877 -12.51251419 -72 -15 C-71.16726563 -15.20367187 -70.33453125 -15.40734375 -69.4765625 -15.6171875 C-45.52708464 -20.86737334 -19.56491412 -14.46742896 0 0 Z " fill="#F6FAFB" transform="translate(566,245)"/>
<path d="M0 0 C0.69432129 0.21430664 1.38864258 0.42861328 2.10400391 0.64941406 C19.2235957 6.11083016 36.60780338 15.86214112 49 29 C49 29.66 49 30.32 49 31 C49.99 31.33 50.98 31.66 52 32 C53.88549073 34.15109392 55.64294934 36.29370844 57.375 38.5625 C57.87104736 39.20727295 58.36709473 39.8520459 58.87817383 40.51635742 C75.30281407 62.04943807 82.43721697 86.16403294 82.20581055 113.1003418 C82.18714477 115.35541701 82.18530441 117.61008873 82.18554688 119.86523438 C82.14806105 130.85193895 82.14806105 130.85193895 81 132 C78.57150529 132.09768222 76.17148637 132.12996531 73.74253845 132.12025452 C72.58969505 132.12153615 72.58969505 132.12153615 71.41356188 132.12284368 C68.81857214 132.12450081 66.22364597 132.11897334 63.62866211 132.11352539 C61.77632143 132.11324354 59.92398063 132.1134012 58.07164001 132.1139679 C53.02639589 132.11425597 47.98117532 132.10835773 42.93593669 132.10139394 C37.66949631 132.09516195 32.40305544 132.09455672 27.13661194 132.09336853 C17.15642042 132.09025475 7.1762398 132.08204075 -2.80394691 132.07201904 C-14.1628819 132.06085933 -25.5218174 132.05534781 -36.8807565 132.05032361 C-60.25384372 132.03985817 -83.62692125 132.02225784 -107 132 C-106.53873891 134.24159801 -106.07223146 136.48211688 -105.60351562 138.72216797 C-105.21468201 140.59387161 -105.21468201 140.59387161 -104.81799316 142.50338745 C-103.83907975 146.68787343 -102.4888454 150.33256731 -100.5 154.125 C-100.15960693 154.78749756 -99.81921387 155.44999512 -99.46850586 156.13256836 C-90.57032389 172.57292458 -75.5509734 182.7615926 -58.1875 188.8125 C-51.30181305 190.72207061 -44.10004013 190.76839828 -37 191 C-36.05511719 191.04125 -35.11023438 191.0825 -34.13671875 191.125 C-17.61717438 191.54655137 -1.942221 185.60446827 10.1875 174.375 C16.04075766 168.22002803 20.22387692 160.55224616 24 153 C41.82 153 59.64 153 78 153 C76.00070078 159.66433074 74.22214641 165.26068287 71 171.25 C70.61118652 171.97525879 70.22237305 172.70051758 69.82177734 173.44775391 C56.34504133 197.7868137 33.11037482 217.5608788 7 227 C6.01902344 227.35835937 5.03804687 227.71671875 4.02734375 228.0859375 C-27.07198369 238.54411841 -60.74924374 235.52955969 -90.125 221.375 C-118.81658454 206.78750459 -139.46162791 180.66420029 -149.8671875 150.52734375 C-153.84430908 138.14341 -155.17964104 126.64692736 -155.1875 113.6875 C-155.19974609 112.63626953 -155.21199219 111.58503906 -155.22460938 110.50195312 C-155.26183426 90.31365685 -149.20977594 72.23080454 -139.5 54.75 C-139.13237549 54.08814697 -138.76475098 53.42629395 -138.38598633 52.74438477 C-135.85253484 48.27823173 -133.15366875 44.05772046 -130 40 C-129.34 40 -128.68 40 -128 40 C-127.773125 39.46375 -127.54625 38.9275 -127.3125 38.375 C-125.54429911 35.17539839 -123.46329797 32.70962777 -121 30 C-120.34 30 -119.68 30 -119 30 C-118.67 29.01 -118.34 28.02 -118 27 C-115.91194491 25.15310057 -113.8339898 23.44012668 -111.625 21.75 C-110.98796143 21.25983398 -110.35092285 20.76966797 -109.69458008 20.26464844 C-99.06809685 12.17462061 -88.42913928 6.73115532 -76 2 C-75.16597656 1.67 -74.33195313 1.34 -73.47265625 1 C-71.33274004 0.21139364 -69.20464956 -0.41576787 -67 -1 C-66.0203125 -1.27714844 -65.040625 -1.55429688 -64.03125 -1.83984375 C-44.0117752 -6.56182857 -19.63926082 -6.16041746 0 0 Z M-82 58 C-83.50046875 59.16595703 -83.50046875 59.16595703 -85.03125 60.35546875 C-88.28844304 63.25694202 -90.65929197 66.24339368 -93.125 69.8125 C-93.55804443 70.4305249 -93.99108887 71.0485498 -94.43725586 71.68530273 C-98.5135331 77.58874319 -101.5704456 82.85222798 -103 90 C-58.78 90 -14.56 90 31 90 C26.66489215 74.10460457 18.37953837 59.83815529 4 51 C-24.23664943 35.49111028 -56.92104865 37.48724428 -82 58 Z " fill="#F6FAFB" transform="translate(933,232)"/>
<path d="M0 0 C2.18863283 1.05111252 3.5702465 2.27689254 5.27865219 4.0050106 C6.26922623 4.99592453 6.26922623 4.99592453 7.27981186 6.00685692 C7.98100143 6.72353035 8.68219101 7.44020378 9.40462875 8.17859459 C10.13143845 8.90964912 10.85824814 9.64070366 11.60708237 10.39391136 C13.92693777 12.73055991 16.23614575 15.07742318 18.54525375 17.42468834 C20.11617819 19.0106587 21.68778469 20.59595377 23.2600975 22.18054771 C27.11309859 26.06662656 30.95740894 29.96114377 34.79525375 33.86218834 C33.19394224 38.26026051 31.34219886 40.74779752 27.79525375 43.86218834 C26.31025375 44.35718834 26.31025375 44.35718834 24.79525375 44.86218834 C24.10467515 46.18329523 23.43992652 47.51808297 22.79525375 48.86218834 C21.314785 50.28406334 21.314785 50.28406334 19.60775375 51.61218834 C16.87978031 53.84878768 14.57280893 56.16819531 12.29525375 58.86218834 C9.59865234 62.04032572 6.76271545 64.65735961 3.54916 67.29578209 C0.92833525 69.63642958 -1.25083965 72.31627166 -3.5211525 74.99109459 C-5.84318946 77.57173428 -8.54025952 79.64178274 -11.20474625 81.86218834 C-12.37013045 83.15736011 -13.51479978 84.47136054 -14.64224625 85.79968834 C-16.85544088 88.40201609 -19.06495338 90.69484162 -21.70474625 92.86218834 C-25.02030393 95.58568215 -27.68103791 98.65526598 -30.45084 101.92078209 C-32.6255001 104.32792255 -35.02441314 106.31391445 -37.52505875 108.37000084 C-39.25271091 109.9047988 -40.67562875 111.51596436 -42.14224625 113.29968834 C-44.31498721 115.93594737 -46.59922319 118.1521906 -49.20474625 120.36218834 C-51.78808397 122.55411125 -54.05463555 124.74466228 -56.20474625 127.36218834 C-58.90899798 130.6485542 -61.9202281 133.35778662 -65.1774025 136.08875084 C-67.63659448 138.23995153 -69.90066783 140.54499995 -72.20474625 142.86218834 C-73.47099341 144.07389836 -74.73938539 145.28336936 -76.00943375 146.49109459 C-77.36642527 147.80206411 -78.72319187 149.11326648 -80.07974625 150.42468834 C-80.78099625 151.08404381 -81.48224625 151.74339928 -82.20474625 152.42273521 C-82.86216812 153.06404381 -83.51959 153.7053524 -84.19693375 154.36609459 C-84.7987648 154.94174156 -85.40059586 155.51738853 -86.02066422 156.11047935 C-87.40694334 157.76395527 -87.40694334 157.76395527 -87.04195213 159.6855011 C-85.91175542 162.62394766 -84.22160174 164.21694197 -81.99353409 166.44089317 C-81.08513275 167.35486366 -80.17673141 168.26883415 -79.24080276 169.21050072 C-78.22615887 170.21612178 -77.21136814 171.22159472 -76.19644547 172.22693443 C-75.13314012 173.29103066 -74.07048804 174.35578001 -73.00844193 175.42113304 C-70.12028489 178.31442892 -67.22287064 181.19828987 -64.3236022 184.08044577 C-61.28819786 187.10081106 -58.26090262 190.12928316 -55.2326088 193.15677452 C-50.14141097 198.24427775 -45.04460843 203.32610892 -39.94400406 208.40418053 C-33.40999474 214.90938227 -26.88521129 221.42375545 -20.36335945 227.94114304 C-14.74614565 233.55436464 -9.12468141 239.16332411 -3.50254297 244.77161264 C-1.7015008 246.56856914 0.0989646 248.366102 1.89935303 250.16371346 C4.73847756 252.99791435 7.58025134 255.82943373 10.42403603 258.65895844 C11.46365179 259.69408233 12.50245496 260.73002315 13.54035378 261.76686859 C18.79825804 267.01824446 24.07132586 272.12079706 29.79525375 276.86218834 C32.79525375 279.42468834 32.79525375 279.42468834 34.79525375 281.86218834 C34.85775375 284.54968834 34.85775375 284.54968834 33.79525375 286.86218834 C31.85775375 287.92468834 31.85775375 287.92468834 29.79525375 288.86218834 C29.39113266 289.71877037 29.39113266 289.71877037 28.9788475 290.59265709 C27.38861499 293.64191481 25.2292496 295.69234363 22.79525375 298.11218834 C21.46494125 299.45023521 21.46494125 299.45023521 20.10775375 300.81531334 C17.79525375 302.86218834 17.79525375 302.86218834 15.79525375 302.86218834 C15.45494125 303.69750084 15.45494125 303.69750084 15.10775375 304.54968834 C13.41975339 307.52378421 11.32848859 309.58227699 8.79525375 311.86218834 C8.13525375 311.86218834 7.47525375 311.86218834 6.79525375 311.86218834 C6.42400375 312.72843834 6.42400375 312.72843834 6.04525375 313.61218834 C4.62842059 316.16248804 2.91897838 317.88004535 0.79525375 319.86218834 C-2.2106827 318.48964566 -4.52983295 316.89739541 -7.0198555 314.73171043 C-7.76435455 314.08534126 -8.50885361 313.43897209 -9.27591324 312.77301598 C-10.08282608 312.06260155 -10.88973892 311.35218712 -11.72110367 310.62024498 C-12.57839569 309.86926033 -13.43568771 309.11827568 -14.31895828 308.34453392 C-22.31667516 301.29277298 -30.13849253 294.05476061 -37.9027853 286.7480154 C-43.10187006 281.86298968 -48.34209717 277.05650442 -53.75137711 272.40442467 C-73.3256361 255.52029025 -92.13867011 239.10076901 -94.1642189 211.90857506 C-95.18905986 195.5634884 -94.08399812 179.1056918 -92.20474625 162.86218834 C-92.72673977 163.38879083 -93.24873329 163.91539331 -93.7865448 164.45795345 C-106.47501506 177.25673355 -119.17721765 190.04173383 -131.89494324 202.81144619 C-138.04475381 208.98706391 -144.18978912 215.1672978 -150.32388687 221.35852623 C-155.66893059 226.75332794 -161.02263697 232.13935179 -166.38703084 237.51491541 C-169.22847585 240.36289204 -172.06532017 243.21513975 -174.89184189 246.07793427 C-177.55030739 248.770239 -180.22016526 251.45068474 -182.89936829 254.12234879 C-183.88252736 255.10688782 -184.86138188 256.09574639 -185.83563232 257.08910179 C-187.16267184 258.44088458 -188.5066054 259.77602153 -189.85141373 261.1101284 C-190.59990963 261.86323327 -191.34840553 262.61633814 -192.11958313 263.39226437 C-194.20474625 264.86218834 -194.20474625 264.86218834 -196.36846542 264.68250847 C-198.61666129 263.67817389 -199.95635105 262.47114194 -201.68814468 260.71936607 C-202.34852737 260.05875679 -203.00891006 259.39814751 -203.68930435 258.71751976 C-204.39049393 258.00084633 -205.0916835 257.2841729 -205.81412125 256.54578209 C-206.54093094 255.81472755 -207.26774063 255.08367302 -208.01657486 254.33046532 C-210.33643026 251.99381677 -212.64563825 249.6469535 -214.95474625 247.29968834 C-216.52567068 245.71371798 -218.09727718 244.12842291 -219.66959 242.54382896 C-223.52259108 238.65775012 -227.36690143 234.76323291 -231.20474625 230.86218834 C-229.93384777 228.07613541 -228.63310944 226.04628025 -226.45189285 223.90247154 C-225.8923642 223.34741936 -225.33283554 222.79236717 -224.75635147 222.22049522 C-224.14482224 221.62401176 -223.533293 221.02752831 -222.90323257 220.41296959 C-222.25759857 219.775075 -221.61196457 219.1371804 -220.9467659 218.47995567 C-219.54654359 217.09737013 -218.14413021 215.71700088 -216.73978996 214.33859825 C-214.52041305 212.15861435 -212.30861717 209.9712076 -210.09895706 207.78137779 C-203.81645785 201.55696234 -197.52438163 195.34236255 -191.2176857 189.14246178 C-187.35985545 185.34890752 -183.51417545 181.54339447 -179.67600441 177.72995567 C-178.2089302 176.2771806 -176.73719041 174.82910184 -175.26081657 173.38577843 C-173.20176887 171.37220957 -171.15844983 169.34387099 -169.11807632 167.31140709 C-168.5004744 166.71492363 -167.88287247 166.11844017 -167.24655533 165.50388145 C-165.37830019 163.68155814 -165.37830019 163.68155814 -163.20474625 160.86218834 C-163.65111081 157.3044976 -165.03184144 155.66894709 -167.55630875 153.18250084 C-168.24337906 152.50058678 -168.93044937 151.81867271 -169.63834 151.11609459 C-170.72308609 150.062286 -170.72308609 150.062286 -171.82974625 148.98718834 C-172.52970718 148.29238365 -173.22966812 147.59757896 -173.95084 146.88171959 C-177.74877267 143.14015697 -181.64481544 139.59545592 -185.72183609 136.16248131 C-187.57501225 134.53751979 -189.1470404 132.76958325 -190.70474625 130.86218834 C-193.420576 127.66030405 -196.2848085 125.01799464 -199.5211525 122.35828209 C-201.8356674 120.30153218 -203.71096015 117.96075663 -205.6774025 115.57703209 C-207.22619465 113.83810688 -208.84466037 112.40199165 -210.64224625 110.92468834 C-213.97247855 108.17999138 -216.65494026 105.10114856 -219.43912125 101.81531334 C-221.66900354 99.34862938 -224.12963478 97.29081934 -226.6930275 95.18250084 C-228.50436575 93.60050515 -229.89035592 91.87243237 -231.20474625 89.86218834 C-229.86493768 86.89228864 -228.38137027 84.77632086 -226.10367203 82.45471764 C-225.47606979 81.81112801 -224.84846756 81.16753838 -224.20184708 80.50444603 C-223.52475693 79.82199318 -222.84766678 79.13954033 -222.15005875 78.43640709 C-221.10312347 77.37592911 -221.10312347 77.37592911 -220.03503799 76.29402733 C-218.56000581 74.80450699 -217.08216236 73.31776604 -215.6017189 71.83362389 C-213.3328051 69.5527633 -211.08320874 67.25391933 -208.8336525 64.95398521 C-207.39860634 63.50948071 -205.96244576 62.06608229 -204.52505875 60.62390709 C-203.85201706 59.93133308 -203.17897537 59.23875908 -202.48553848 58.52519798 C-201.85163193 57.89736916 -201.21772537 57.26954033 -200.56460953 56.62268639 C-200.01104782 56.06405403 -199.45748611 55.50542168 -198.88714981 54.92986107 C-197.20474625 53.86218834 -197.20474625 53.86218834 -195.28863335 54.12896919 C-192.97897952 54.94162474 -191.8967563 55.79973462 -190.18014908 57.52602196 C-189.6109021 58.09114494 -189.04165512 58.65626793 -188.45515823 59.23851585 C-187.84303986 59.86142006 -187.23092148 60.48432426 -186.60025406 61.12610435 C-185.94618073 61.77973961 -185.29210739 62.43337486 -184.61821365 63.10681725 C-182.45757967 65.2695416 -180.3077662 67.44269893 -178.15787125 69.61609459 C-176.66208637 71.11747451 -175.16563787 72.61819354 -173.6685524 74.1182766 C-169.72951679 78.06876808 -165.79957304 82.02818581 -161.87143326 85.98950768 C-157.861671 90.02995456 -153.84340573 94.06192519 -149.82584 98.09461021 C-141.94378027 106.00884722 -134.0712962 113.93253695 -126.20474625 121.86218834 C-122.42783632 120.2953094 -120.0555852 117.94711643 -117.19498062 115.05928612 C-116.7043589 114.56684542 -116.21373718 114.07440472 -115.70824814 113.56704158 C-114.06687342 111.91725902 -112.43277398 110.26045426 -110.79849625 108.60364342 C-109.62261322 107.41901031 -108.44625027 106.23485341 -107.26944351 105.05113792 C-104.73710857 102.50231659 -102.20776947 99.95057165 -99.68057632 97.39665222 C-95.68691076 93.36165495 -91.68404559 89.33587116 -87.67935562 85.31181908 C-76.29336903 73.86822212 -64.9174731 62.41465899 -53.55630875 50.94641685 C-47.28087054 44.61199248 -40.9965859 38.28648493 -34.7023735 31.97071379 C-30.71589962 27.96956357 -26.74078019 23.95756087 -22.77353287 19.93735087 C-20.3076756 17.44383929 -17.83149021 14.96079267 -15.35217667 12.48066711 C-14.2012949 11.32520012 -13.0547371 10.16540839 -11.91278458 9.0011158 C-10.3579382 7.41708403 -8.78858394 5.84903272 -7.21451187 4.28413963 C-5.90045364 2.9592715 -5.90045364 2.9592715 -4.55984879 1.60763836 C-2.20474625 -0.13781166 -2.20474625 -0.13781166 0 0 Z " fill="#F6FAFB" transform="translate(1245.204746246338,0.13781166076660156)"/>
<path d="M0 0 C7.20813016 -0.10126342 14.41607752 -0.17140779 21.62475586 -0.21972656 C24.07795059 -0.23986533 26.53109719 -0.26717818 28.98413086 -0.30175781 C32.50646833 -0.35017482 36.02817223 -0.37294629 39.55078125 -0.390625 C41.20089958 -0.42159271 41.20089958 -0.42159271 42.88435364 -0.45318604 C43.90518539 -0.45348816 44.92601715 -0.45379028 45.9777832 -0.45410156 C47.32680473 -0.46742523 47.32680473 -0.46742523 48.70307922 -0.48101807 C51 0 51 0 52.74514771 1.8861084 C54.08458457 4.14248896 55.13688189 6.36706255 56.12890625 8.796875 C56.51860596 9.74248291 56.90830566 10.68809082 57.30981445 11.66235352 C57.72320068 12.68127686 58.13658691 13.7002002 58.5625 14.75 C59.46340989 16.94146043 60.36445514 19.13286521 61.265625 21.32421875 C61.72259766 22.44103027 62.17957031 23.5578418 62.65039062 24.70849609 C64.6840674 29.66834237 66.74796491 34.61543823 68.8125 39.5625 C69.21380127 40.52631592 69.61510254 41.49013184 70.02856445 42.4831543 C72.44506816 48.28473509 74.87271138 54.08153715 77.30859375 59.875 C77.59366287 60.55336411 77.87873199 61.23172821 78.17243958 61.9306488 C79.56627862 65.24747701 80.96126253 68.56381245 82.35864258 71.87915039 C84.71219404 77.4735965 87.03966917 83.07350243 89.26594543 88.72000122 C91.80695178 95.16367183 94.56078806 101.46841788 97.50439453 107.73974609 C100.15768997 113.52363562 102.53254602 119.42208843 104.9375 125.3125 C109.15956933 135.60136173 113.45924369 145.84725262 118 156 C121.39611791 148.78866877 124.42907106 141.50070625 127.23291016 134.04052734 C128.46871846 130.75316714 129.71200725 127.46866074 130.95776367 124.18505859 C131.63055943 122.41142462 132.30143557 120.63706072 132.9699707 118.86181641 C134.68986892 114.32315993 136.476149 109.82280294 138.35546875 105.34765625 C141.16655312 98.65053486 143.82515063 91.89730555 146.47546387 85.13543701 C147.90937151 81.47726823 149.34727502 77.82067088 150.78515625 74.1640625 C151.06648407 73.44844147 151.34781189 72.73282043 151.63766479 71.99551392 C154.12651325 65.66891455 156.64987947 59.35650095 159.18505859 53.04833984 C161.25255166 47.89428954 163.28278996 42.72662072 165.29760742 37.55175781 C168.80017607 28.55865588 172.33205917 19.57739975 175.9375 10.625 C176.31511475 9.67318848 176.69272949 8.72137695 177.08178711 7.74072266 C177.4350708 6.8697998 177.78835449 5.99887695 178.15234375 5.1015625 C178.46163818 4.33150879 178.77093262 3.56145508 179.08959961 2.76806641 C180 1 180 1 182 0 C183.60354452 -0.09016377 185.21082222 -0.11756075 186.81689453 -0.11352539 C187.81778107 -0.11344986 188.8186676 -0.11337433 189.84988403 -0.11329651 C190.93325043 -0.10813522 192.01661682 -0.10297394 193.1328125 -0.09765625 C194.23978485 -0.0962413 195.3467572 -0.09482635 196.48727417 -0.09336853 C200.03320993 -0.08775772 203.57908323 -0.07520337 207.125 -0.0625 C209.52473867 -0.05748639 211.92447833 -0.05292325 214.32421875 -0.04882812 C220.21616725 -0.03778478 226.10807916 -0.0210361 232 0 C233.3330023 4.26155919 232.14161545 6.97050127 230.4375 10.9375 C230.16083496 11.60499268 229.88416992 12.27248535 229.59912109 12.96020508 C227.8723821 17.08312498 226.02708634 21.14229158 224.125 25.1875 C220.87537303 32.11499935 218.07661517 39.19326657 215.26171875 46.3046875 C212.75501599 52.63564725 210.19418758 58.94417884 207.625 65.25 C207.15457275 66.40467773 206.68414551 67.55935547 206.19946289 68.74902344 C202.86119131 76.92638858 199.46805905 85.07967873 196.05566406 93.22631836 C192.08962512 102.72577112 188.23318444 112.26890028 184.375 121.8125 C180.28200719 131.93538754 176.18682139 142.05407683 171.91870117 152.10473633 C161.86727257 175.77718424 152.09061195 199.58803136 142.625 223.5 C141.0543771 227.44886724 139.41846989 231.33507948 137.625 235.1875 C134.89349083 241.07813478 132.53326584 247.10432141 130.1418457 253.13842773 C127.93086642 258.70498344 125.65714087 264.23853169 123.3125 269.75 C119.57706936 278.54710613 115.96921963 287.39453147 112.375 296.25 C111.9672081 297.25419983 111.9672081 297.25419983 111.55117798 298.27868652 C110.74962484 300.25324056 109.94895644 302.22815149 109.1484375 304.203125 C108.88880722 304.84239929 108.62917694 305.48167358 108.36167908 306.14031982 C106.99895254 309.50288698 105.65522958 312.87170643 104.33691406 316.25195312 C104.06666412 316.94069519 103.79641418 317.62943726 103.51797485 318.33905029 C102.76931806 320.25022823 102.02633167 322.16362459 101.28369141 324.07714844 C100 327 100 327 98 329 C95.82333374 329.24050903 95.82333374 329.24050903 93.09130859 329.22705078 C92.07040131 329.22689972 91.04949402 329.22674866 89.99765015 329.22659302 C88.89240997 329.21627045 87.7871698 329.20594788 86.6484375 329.1953125 C85.5192691 329.1924826 84.39010071 329.18965271 83.22671509 329.18673706 C79.60937029 329.17551462 75.99227034 329.15040622 72.375 329.125 C69.9270869 329.11497287 67.47916993 329.10584656 65.03125 329.09765625 C59.02074936 329.07556857 53.01039217 329.04207074 47 329 C48.64401815 323.95697137 50.33592879 318.96958799 52.34765625 314.05859375 C52.78295654 312.99253906 53.21825684 311.92648437 53.66674805 310.828125 C54.12734619 309.70921875 54.58794434 308.5903125 55.0625 307.4375 C55.54565674 306.25800781 56.02881348 305.07851563 56.52661133 303.86328125 C62.56422963 289.14689438 68.68882787 274.46699688 74.875 259.8125 C78.15096875 252.05055095 81.38799055 244.27254098 84.61309814 236.48934937 C85.15975614 235.17021873 85.70674958 233.85122705 86.25408936 232.53237915 C87.02334987 230.67828895 87.79100328 228.82353222 88.55859375 226.96875 C89.22846313 225.35129883 89.22846313 225.35129883 89.91186523 223.70117188 C91.75855858 219.65014181 91.75855858 219.65014181 91.12304688 215.45068359 C90.65962891 214.44344238 90.19621094 213.43620117 89.71875 212.3984375 C89.20981201 211.27663086 88.70087402 210.15482422 88.17651367 208.99902344 C87.3466394 207.20513184 87.3466394 207.20513184 86.5 205.375 C85.37717274 202.91081545 84.26102434 200.44362211 83.14453125 197.9765625 C82.60006348 196.77676758 82.0555957 195.57697266 81.49462891 194.34082031 C79.6327977 190.17922309 77.88504769 185.98070209 76.1875 181.75 C74.1064348 176.58850914 71.89043702 171.52577698 69.5 166.5 C66.72367765 160.66102541 64.20134145 154.75047127 61.765625 148.76220703 C56.90119337 136.81367779 51.91125513 124.90461154 46.375 113.25 C43.59608598 107.38411683 41.06220462 101.45257003 38.65966797 95.42285156 C36.96127619 91.19737901 35.11986714 87.05927121 33.19921875 82.9296875 C29.78809454 75.593674 26.57374814 68.18019236 23.375 60.75 C22.25851953 58.16115289 21.14112798 55.57269991 20.0234375 52.984375 C19.75674759 52.36636017 19.49005768 51.74834534 19.21528625 51.11160278 C17.48481445 47.10637032 15.72326846 43.1162416 13.94335938 39.1328125 C11.69860524 34.05771619 9.5462432 28.94188346 7.37744141 23.83398438 C4.96981174 18.18658117 2.469579 12.62662548 -0.3203125 7.15625 C-1.1734905 4.44961635 -0.62579779 2.72850091 0 0 Z " fill="#F6FAFB" transform="translate(150,232)"/>
<path d="M0 0 C0 26.4 0 52.8 0 80 C15.42274686 79.9603921 15.42274686 79.9603921 30.84545898 79.90991211 C32.77067001 79.90699309 34.69588165 79.9044445 36.62109375 79.90234375 C37.63079224 79.89722778 38.64049072 79.89211182 39.68078613 79.88684082 C40.6348938 79.88671997 41.58900146 79.88659912 42.57202148 79.88647461 C43.40475082 79.884254 44.23748016 79.88203339 45.09544373 79.87974548 C47 80 47 80 48 81 C48.0928726 82.41225046 48.11746772 83.82908934 48.11352539 85.24438477 C48.11340454 86.15788696 48.11328369 87.07138916 48.11315918 88.01257324 C48.10804321 88.97908813 48.10292725 89.94560303 48.09765625 90.94140625 C48.09664917 91.82501831 48.09564209 92.70863037 48.09460449 93.61901855 C48.08935531 96.93352549 48.07539417 100.24801399 48.0625 103.5625 C48.041875 110.966875 48.02125 118.37125 48 126 C32.16 126 16.32 126 0 126 C0.12011936 144.14265726 0.12011936 144.14265726 0.2578125 162.28515625 C0.31793083 169.69349553 0.37606806 177.10181051 0.421875 184.51025391 C0.45896934 190.4885172 0.50539236 196.46664426 0.55806351 202.44478989 C0.57647995 204.71630316 0.59163399 206.98784549 0.60334396 209.25940323 C-0.20215515 232.72587209 -0.20215515 232.72587209 8 254 C10.60021573 256.02816827 12.03808183 256.92915266 15 258 C15.7115625 258.28359375 16.423125 258.5671875 17.15625 258.859375 C24.60767255 261.35890282 32.21571297 261.48046219 40.00244141 261.7097168 C41.3354126 261.74899292 41.3354126 261.74899292 42.6953125 261.7890625 C43.49984863 261.80662598 44.30438477 261.82418945 45.13330078 261.84228516 C47 262 47 262 48 263 C48.09822744 264.46805292 48.1279837 265.9407746 48.12939453 267.41210938 C48.13254669 268.34978149 48.13569885 269.28745361 48.13894653 270.25354004 C48.13591019 271.78319397 48.13591019 271.78319397 48.1328125 273.34375 C48.13376923 274.38317749 48.13472595 275.42260498 48.13571167 276.49353027 C48.13639363 278.69604554 48.13453827 280.89856279 48.13037109 283.10107422 C48.12502308 286.48539719 48.13031559 289.86958744 48.13671875 293.25390625 C48.13605797 295.38802113 48.13477681 297.52213592 48.1328125 299.65625 C48.13483673 300.67601929 48.13686096 301.69578857 48.13894653 302.74645996 C48.13421829 304.15296814 48.13421829 304.15296814 48.12939453 305.58789062 C48.12859894 306.41760376 48.12780334 307.24731689 48.12698364 308.10217285 C48 310 48 310 47 311 C42.67099268 311.24904611 38.33309122 311.09382678 34 311 C33.33226563 310.98743164 32.66453125 310.97486328 31.9765625 310.96191406 C8.85846473 310.42758067 -15.99889314 307.23688064 -32.98828125 289.98046875 C-48.13050114 271.88366936 -51.19638905 247.44872988 -51.11352539 224.65356445 C-51.11367142 223.5790654 -51.11381744 222.50456635 -51.1139679 221.39750671 C-51.11327755 217.88607687 -51.10552673 214.3747017 -51.09765625 210.86328125 C-51.09578894 208.41277597 -51.09436652 205.96227031 -51.09336853 203.51176453 C-51.08956797 197.09212191 -51.07975891 190.67250226 -51.06866455 184.25286865 C-51.05839731 177.69006664 -51.05385957 171.12726087 -51.04882812 164.56445312 C-51.03813424 151.70962375 -51.02055759 138.85481739 -51 126 C-63.54 126 -76.08 126 -89 126 C-89 110.82 -89 95.64 -89 80 C-76.46 80 -63.92 80 -51 80 C-51.0928125 76.23207031 -51.185625 72.46414062 -51.28125 68.58203125 C-51.34364432 64.93161406 -51.39221704 61.28125629 -51.43945312 57.63061523 C-51.47968004 55.09388636 -51.5342705 52.5573429 -51.60351562 50.02124023 C-51.70059412 46.37437244 -51.74593621 42.7299554 -51.78125 39.08203125 C-51.82254028 37.94852737 -51.86383057 36.8150235 -51.90637207 35.64717102 C-51.91074117 27.97747364 -51.91074117 27.97747364 -49.37588501 25.25688171 C-47.30404017 23.93604325 -45.26331521 22.94998318 -43 22 C-41.98599121 21.43047607 -40.97198242 20.86095215 -39.92724609 20.27416992 C-38.96898926 19.76474854 -38.01073242 19.25532715 -37.0234375 18.73046875 C-35.94650635 18.15506348 -34.8695752 17.5796582 -33.76000977 16.98681641 C-32.64295654 16.39304199 -31.52590332 15.79926758 -30.375 15.1875 C-21.96508768 10.69915293 -13.62217158 6.15193744 -5.44140625 1.2578125 C-3 0 -3 0 0 0 Z " fill="#F6FAFB" transform="translate(89,152)"/>
</svg>
